HIERARCHY
ROOT Hips
{
	OFFSET -0.001795 -0.223333 0.028219
	CHANNELS 6 Xposition Yposition Zposition Zrotation Yrotation Xrotation 
	JOINT LeftUpLeg
	{
		OFFSET 0.069520 -0.091406 -0.006815
		CHANNELS 3 Zrotation Yrotation Xrotation
		JOINT LeftLeg
		{
			OFFSET 0.034277 -0.375199 -0.004496
			CHANNELS 3 Zrotation Yrotation Xrotation
			JOINT LeftFoot
			{
				OFFSET -0.013596 -0.397961 -0.043693
				CHANNELS 3 Zrotation Yrotation Xrotation
				JOINT LeftToe
				{
					OFFSET 0.026358 -0.055791 0.119288
					CHANNELS 3 Zrotation Yrotation Xrotation
					End Site
					{
						OFFSET 0.000000 0.000000 0.000000
					}
				}
			}
		}
	}
	JOINT RightUpLeg
	{
		OFFSET -0.067670 -0.090522 -0.004320
		CHANNELS 3 Zrotation Yrotation Xrotation
		JOINT RightLeg
		{
			OFFSET -0.038290 -0.382569 -0.008850
			CHANNELS 3 Zrotation Yrotation Xrotation
			JOINT RightFoot
			{
				OFFSET 0.015774 -0.398415 -0.042312
				CHANNELS 3 Zrotation Yrotation Xrotation
				JOINT RightToe
				{
					OFFSET -0.025372 -0.048144 0.123348
					CHANNELS 3 Zrotation Yrotation Xrotation
					End Site
					{
						OFFSET 0.000000 0.000000 0.000000
					}
				}
			}
		}
	}
	JOINT Spine
	{
		OFFSET -0.002533 0.108963 -0.026696
		CHANNELS 3 Zrotation Yrotation Xrotation
		JOINT Spine1
		{
			OFFSET 0.005487 0.135180 0.001092
			CHANNELS 3 Zrotation Yrotation Xrotation
			JOINT Spine2
			{
				OFFSET 0.001457 0.052922 0.025425
				CHANNELS 3 Zrotation Yrotation Xrotation
				JOINT Neck
				{
					OFFSET -0.002778 0.213870 -0.042857
					CHANNELS 3 Zrotation Yrotation Xrotation
					JOINT Head
					{
						OFFSET 0.005152 0.064970 0.051349
						CHANNELS 3 Zrotation Yrotation Xrotation
						End Site
						{
							OFFSET 0.000000 0.000000 0.000000
						}
					}
				}
				JOINT LeftShoulder
				{
					OFFSET 0.078845 0.121749 -0.034090
					CHANNELS 3 Zrotation Yrotation Xrotation
					JOINT LeftArm
					{
						OFFSET 0.090977 0.030469 -0.008868
						CHANNELS 3 Zrotation Yrotation Xrotation
						JOINT LeftForeArm
						{
							OFFSET 0.259612 -0.012772 -0.027456
							CHANNELS 3 Zrotation Yrotation Xrotation
							JOINT LeftHand
							{
								OFFSET 0.249234 0.008986 -0.001171
								CHANNELS 3 Zrotation Yrotation Xrotation
								End Site
								{
									OFFSET 0.000000 0.000000 0.000000
								}
							}
						}
					}
				}
				JOINT RightShoulder
				{
					OFFSET -0.081759 0.118833 -0.038615
					CHANNELS 3 Zrotation Yrotation Xrotation
					JOINT RightArm
					{
						OFFSET -0.096012 0.032551 -0.009143
						CHANNELS 3 Zrotation Yrotation Xrotation
						JOINT RightForeArm
						{
							OFFSET -0.253742 -0.013329 -0.021401
							CHANNELS 3 Zrotation Yrotation Xrotation
							JOINT RightHand
							{
								OFFSET -0.255298 0.007772 -0.005559
								CHANNELS 3 Zrotation Yrotation Xrotation
								End Site
								{
									OFFSET 0.000000 0.000000 0.000000
								}
							}
						}
					}
				}
			}
		}
	}
}
MOTION
Frames: 6
Frame Time: 0.050000
0.000000 0.928490 0.000000 -0.592090 -1.532984 2.430804 0.590391 0.541004 6.234250 -0.549016 0.172735 -3.812847 3.188900 6.577535 -0.622160 0.000000 0.000000 0.000000 0.525518 0.266186 -2.725321 2.763588 -0.210715 4.244238 -4.256789 -9.867682 -2.690081 0.000000 0.000000 0.000000 3.758918 0.090533 -2.051261 -1.376613 0.662614 -0.727167 -2.615524 3.683691 8.508712 6.538088 -2.814038 -14.505337 0.000000 0.000000 0.000000 -20.383536 -3.798672 -0.678154 -30.694579 6.874817 -5.011214 -12.181934 -33.405526 4.677295 0.000000 0.000000 0.000000 18.051331 -1.485731 -1.586404 34.301010 -5.439557 -5.040725 15.195619 43.786515 7.869302 0.000000 0.000000 0.000000 
-0.001883 0.927831 -0.000125 -0.996182 -2.385955 2.955724 1.097404 0.541302 6.574008 -1.224404 0.268435 -5.484386 3.918926 7.914397 -1.569195 0.000000 0.000000 0.000000 1.335948 0.381874 -3.864666 2.892356 -0.217413 4.357581 -4.645581 -10.756566 -2.912596 0.000000 0.000000 0.000000 4.466117 0.133796 -2.640352 -2.086891 0.995207 -0.104076 -2.336186 4.242676 8.059100 7.457791 -3.116629 -16.095212 0.000000 0.000000 0.000000 -18.505081 -3.595394 -0.625108 -31.225560 7.575562 -5.242438 -10.960276 -32.812248 4.214361 0.000000 0.000000 0.000000 16.666975 -2.571904 -2.049524 34.822647 -6.842055 -5.426036 16.913287 45.580845 9.028931 0.000000 0.000000 0.000000 
-0.004875 0.927868 0.000080 -0.815682 -1.941874 3.218861 1.488728 0.494226 6.423710 -1.910425 0.299595 -4.884377 3.428213 6.783243 -1.723530 0.000000 0.000000 0.000000 1.421534 0.564133 -5.469362 3.071028 -0.213972 6.447577 -4.860544 -11.154460 -3.695455 0.000000 0.000000 0.000000 4.769013 0.117967 -2.503985 -1.238485 0.604147 -1.770073 -3.396970 4.249114 9.778309 7.390831 -3.113036 -15.900294 0.000000 0.000000 0.000000 -17.423882 -3.488588 -0.593639 -31.371136 7.868862 -5.421929 -10.829140 -33.428233 4.232822 0.000000 0.000000 0.000000 17.107547 -2.717803 -2.040649 34.014608 -7.981281 -5.684826 17.177691 47.594110 9.673912 0.000000 0.000000 0.000000 
-0.009561 0.928258 0.000890 -0.842099 -2.481944 3.164888 1.626950 0.493586 6.458684 -1.643500 0.266139 -4.058490 3.858615 7.616278 -2.225296 0.000000 0.000000 0.000000 1.975817 0.616470 -5.864009 3.279571 -0.235619 6.678452 -4.879384 -11.219657 -3.459667 0.000000 0.000000 0.000000 4.628562 0.119310 -2.493368 -1.428995 0.684667 -0.743147 -3.039506 4.098101 9.126221 7.177339 -2.955971 -16.216701 0.000000 0.000000 0.000000 -17.867803 -2.841257 -0.886556 -30.388685 8.385988 -5.325608 -9.191894 -33.625091 3.797718 0.000000 0.000000 0.000000 17.051402 -3.160875 -2.395285 33.360451 -8.926502 -5.706478 17.205923 50.004168 10.179702 0.000000 0.000000 0.000000 
-0.015764 0.929004 0.002462 -0.908344 -2.537505 3.100529 2.142344 0.469142 6.607636 -1.556826 0.251400 -3.674091 3.837193 7.691315 -1.778711 0.000000 0.000000 0.000000 2.336129 0.642854 -6.028210 3.250572 -0.224134 7.078889 -4.787127 -11.086292 -3.057685 0.000000 0.000000 0.000000 4.595438 0.065973 -1.840223 -0.716960 0.351245 -0.728040 -3.478424 4.001969 9.087988 7.560626 -3.298703 -15.640658 0.000000 0.000000 0.000000 -17.797195 -2.872489 -0.850227 -29.852506 9.056735 -5.363598 -7.896886 -34.580696 3.511471 0.000000 0.000000 0.000000 17.188347 -3.479699 -2.592735 33.306109 -9.545840 -5.826410 17.913217 51.590847 10.893239 0.000000 0.000000 0.000000 
-0.023316 0.928860 0.005141 -1.171829 -3.230983 2.929113 2.588113 0.421548 6.268979 -1.277535 0.185643 -1.754737 4.518467 9.128000 -2.163727 0.000000 0.000000 0.000000 2.870489 0.603718 -5.660456 3.219349 -0.211015 6.964199 -4.484802 -10.159660 -3.277810 0.000000 0.000000 0.000000 4.802328 0.028541 -1.347475 -0.720646 0.343492 0.267189 -3.158318 3.504046 8.576622 6.903108 -2.957826 -15.650194 0.000000 0.000000 0.000000 -17.395134 -2.420636 -0.843006 -30.792653 9.347956 -5.648841 -5.079002 -35.178721 2.758560 0.000000 0.000000 0.000000 16.761585 -3.622982 -2.830570 34.488279 -9.223668 -5.890178 14.697035 52.406418 9.383073 0.000000 0.000000 0.000000 
